<svg xmlns="http://www.w3.org/2000/svg" width="19.819" height="13.396" viewBox="0 0 19.819 13.396"><defs><style>.a{fill:#fb6444;}</style></defs><path class="a" d="M17.89,65.793V62.571A1.839,1.839,0,0,0,15.918,60.6H3.837a1.827,1.827,0,0,0-1.971,1.971v3.222A2.019,2.019,0,0,0,0,68v2.5a.76.76,0,0,0,.763.763h.254v1.971A.76.76,0,0,0,1.78,74H2.5a.76.76,0,0,0,.763-.763V71.241h13.29v1.992a.76.76,0,0,0,.763.763h.721a.76.76,0,0,0,.763-.763V71.241h.254a.76.76,0,0,0,.763-.763V68A2.106,2.106,0,0,0,17.89,65.793Zm-15.3-3.222h.042a1.084,1.084,0,0,1,1.208-1.208H15.918a1.084,1.084,0,0,1,1.208,1.208v3.2h-.572V63.949a.76.76,0,0,0-.763-.763H11.128a.76.76,0,0,0-.763.763v1.823h-.89V63.949a.76.76,0,0,0-.763-.763H4.048a.76.76,0,0,0-.763.763v1.823h-.7Zm13.205,1.378v1.823H11.128V63.949Zm-7.037,0v1.823H4.091V63.949ZM2.48,73.233H1.759V71.241H2.48Zm15.516,0h-.721V71.241H18Zm1-2.734H.742V69.375h18.25Zm0-1.886H.742V68A1.332,1.332,0,0,1,2.2,66.535H17.529A1.324,1.324,0,0,1,18.992,68Z" transform="translate(0 -60.6)"/></svg>