<svg xmlns="http://www.w3.org/2000/svg" width="37.149" height="65.687" viewBox="0 0 37.149 65.687"><defs><style>.a{fill:#fb6444;}</style></defs><path class="a" d="M29.478,33.329C21.194,31.176,18.53,28.95,18.53,25.483c0-3.978,3.686-6.751,9.853-6.751,6.5,0,8.9,3.1,9.123,7.663h8.065c-.255-6.277-4.087-12.043-11.714-13.9V4.5H22.909v7.882c-7.08,1.533-12.772,6.131-12.772,13.174,0,8.43,6.97,12.626,17.152,15.071,9.123,2.19,10.948,5.4,10.948,8.795,0,2.518-1.788,6.532-9.853,6.532-7.517,0-10.473-3.357-10.875-7.663H9.48c.438,7.992,6.423,12.48,13.429,13.977v7.919H33.857V62.341c7.116-1.35,12.772-5.474,12.772-12.955C46.629,39.022,37.762,35.482,29.478,33.329Z" transform="translate(-9.48 -4.5)"/></svg>