<svg xmlns="http://www.w3.org/2000/svg" width="224" height="40.702" viewBox="0 0 224 40.702"><defs><style>.a{fill:none;}.b{fill:#fe8369;}.c{fill:#4b4b4b;font-size:22px;font-family:Helvetica-Bold, Helvetica;font-weight:700;letter-spacing:0.03em;}</style></defs><g transform="translate(-235 -34)"><g transform="translate(235 34)"><path class="a" d="M92.9,25.533V40.91a7.059,7.059,0,0,1-.492,2.575h9.659a2.579,2.579,0,0,0,2.575-2.575V25.533a2.567,2.567,0,0,0-.923-1.976L90.327,12.369a2.577,2.577,0,0,0-3.3,0L84.06,14.845l6.3,5.264A7.055,7.055,0,0,1,92.9,25.533Z" transform="translate(-51.995 -7.275)"/><path class="a" d="M70.017,50.645V35.269a2.567,2.567,0,0,0-.923-1.976L62.167,27.51l-6.923,5.783a2.567,2.567,0,0,0-.923,1.976V50.645a2.578,2.578,0,0,0,2.571,2.575H67.442A2.579,2.579,0,0,0,70.017,50.645Z" transform="translate(-33.599 -17.011)"/><path class="a" d="M23.505,25.533a7.05,7.05,0,0,1,2.533-5.421l6.3-5.268-2.964-2.476a2.577,2.577,0,0,0-3.3,0L12.683,23.557a2.567,2.567,0,0,0-.923,1.976V40.91a2.579,2.579,0,0,0,2.575,2.575h9.658A7.028,7.028,0,0,1,23.5,40.91V25.533Z" transform="translate(-7.274 -7.275)"/><path class="b" d="M73.259,28.549a2.567,2.567,0,0,1,.923,1.976V45.9a2.579,2.579,0,0,1-2.575,2.575h6.576a7.044,7.044,0,0,0,.492-2.575V30.525A7.05,7.05,0,0,0,76.143,25.1l-6.3-5.264-3.5,2.926Z" transform="translate(-37.768 -12.267)"/><path class="b" d="M16.723,36.2H7.065A2.579,2.579,0,0,1,4.49,33.622V18.245a2.567,2.567,0,0,1,.923-1.976L18.8,5.081a2.577,2.577,0,0,1,3.3,0l2.964,2.476,3.5-2.926-3.586-3a7.059,7.059,0,0,0-9.06,0L2.533,12.824A7.05,7.05,0,0,0,0,18.245V33.622a7.074,7.074,0,0,0,7.065,7.065H23.288A7.074,7.074,0,0,1,16.723,36.2Z" transform="translate(0 0.013)"/><path class="b" d="M92.364,12.831,78.975,1.643a7.059,7.059,0,0,0-9.06,0l-3.586,3,3.5,2.926L72.8,5.091a2.577,2.577,0,0,1,3.3,0L89.488,16.279a2.567,2.567,0,0,1,.923,1.976V33.632a2.579,2.579,0,0,1-2.575,2.575H78.177A7.069,7.069,0,0,1,71.6,40.7H87.836A7.074,7.074,0,0,0,94.9,33.632V18.251A7.053,7.053,0,0,0,92.364,12.831Z" transform="translate(-37.762 0.006)"/><path class="b" d="M47.04,45.895V30.518a2.567,2.567,0,0,1,.923-1.976l6.923-5.787-3.5-2.926-6.3,5.268a7.05,7.05,0,0,0-2.533,5.421V45.895a7.059,7.059,0,0,0,.492,2.575h6.569A2.578,2.578,0,0,1,47.04,45.895Z" transform="translate(-26.319 -12.261)"/><path class="b" d="M67.529,94.91H43.84A7.068,7.068,0,0,0,50.4,99.4H60.96A7.064,7.064,0,0,0,67.529,94.91Z" transform="translate(-27.117 -58.701)"/><path class="b" d="M69.218,18.022l3.5-2.926-3.5-2.926L65.72,15.1Z" transform="translate(-40.651 -7.523)"/></g><text class="c" transform="translate(301 64)"><tspan x="0" y="0">PlaceTogether</tspan></text></g></svg>